<svg version="1.2" xmlns="http://www.w3.org/2000/svg" viewBox="0 0 225 237" width="200" height="211"><defs><svg id="prefix__img1" viewBox="0 0 500 500" xmlns="http://www.w3.org/2000/svg"><path d="M481.845 279.228v-32.65h-97.706v163.249h32.569v-65.3h48.853v-32.649h-48.853v-32.65h65.137zM302.717 409.827h-65.136V246.578h65.136c26.968.016 48.837 21.926 48.853 48.975v65.3c-.016 27.033-21.885 48.942-48.853 48.974zm-32.569-32.65h32.569c8.989-.016 16.284-7.314 16.284-16.324v-65.3c0-9.011-7.295-16.325-16.284-16.325h-32.569v97.949zm-97.703-130.599H91.023v163.249h32.568v-48.974h48.854c17.976-.032 32.552-14.628 32.567-32.65v-48.975c-.015-18.022-14.591-32.634-32.567-32.65zm-48.854 81.625v-48.975h48.854l.014 48.975h-48.868z" fill="#fa5050" class="prefix__fill-000000"/><path d="M351.57 213.929v-65.3a14.86 14.86 0 00-4.888-11.43L232.693 22.926a14.723 14.723 0 00-11.397-4.895H58.454c-17.962.047-32.506 14.627-32.569 32.649v391.796c0 18.023 14.591 32.65 32.569 32.65h260.547v-32.65H58.454V50.68h130.273v97.949c.063 18.007 14.607 32.583 32.569 32.65h97.705v32.65h32.569zm-130.274-65.3V57.211l91.193 91.418h-91.193z" fill="#fa5050" class="prefix__fill-000000"/><path data-name="&lt;Transparent Rectangle&gt;" d="M161.157 68.518h100v100h-100v-100z" fill="none"/></svg></defs><style>.prefix__a{fill:#3982f0}</style><path fill-rule="evenodd" class="prefix__a" d="M133.6 160.5H13.7q-.3 0-.6-.2-.3-.1-.6-.4-.2-.2-.4-.5-.1-.3-.1-.7v-148q0-.3.1-.6l.4-.6.6-.4q.3-.1.6-.1h119.9q.3 0 .6.1.4.2.6.4.3.3.4.6.1.3.1.6v148q0 .4-.1.7-.1.3-.4.5-.2.3-.6.4-.3.2-.6.2zM15.5 157h116.3V12.5H15.5z"/><path fill-rule="evenodd" class="prefix__a" d="M119.5 64.8H27.8c-3.2 0-5.8-2.6-5.8-5.8V26.8c0-3.2 2.6-5.8 5.8-5.8h91.7c3.2 0 5.9 2.6 5.9 5.8V59c0 3.2-2.7 5.8-5.9 5.8zM27.8 24.5c-1.3 0-2.3 1-2.3 2.3V59c0 1.3 1 2.3 2.3 2.3h91.7c1.3 0 2.4-1 2.4-2.3V26.8c0-1.3-1.1-2.3-2.4-2.3z"/><path fill-rule="evenodd" class="prefix__a" d="M47.3 50.6v3.8h-4.2v-3.8zM60.4 33h4.3v15c0 2-.7 3.7-2 4.9q-2 1.8-5.1 1.8c-2.2 0-3.9-.6-5.2-1.7q-2-1.6-1.9-4.7l.1-.1h4.1c0 1.1.2 1.9.8 2.4q.8.7 2.1.7 1.2 0 2-.8c.6-.6.8-1.5.8-2.5V33zm12.4 13.6v7.8h-4.2V33H77q3.7 0 5.8 1.8c1.3 1.3 2.1 3 2.1 5q-.1 3-2.1 5-2.1 1.8-5.8 1.8h-4.2zm0-3.3H77c1.2 0 2.1-.3 2.7-.9q.9-1 .9-2.6 0-1.5-.9-2.5c-.6-.7-1.5-1-2.7-1h-4.2zm31.4 8.1c-.6.8-1.6 1.6-2.9 2.3-1.3.6-3 .9-5 .9q-3.9 0-6.4-2.4-2.4-2.4-2.4-6.3v-4.5q-.1-3.9 2.3-6.3t6.1-2.4q3.9-.1 6 1.9c1.3 1.2 2 2.9 2 4.9v.1h-4c-.1-1.1-.4-2-1.1-2.6-.6-.7-1.5-1.1-2.8-1.1-1.3 0-2.3.6-3.1 1.6-.8 1-1.2 2.3-1.2 3.9v4.5c0 1.6.4 2.9 1.2 3.9.9 1 1.9 1.5 3.4 1.5q1.4 0 2.3-.3c.7-.2 1.1-.4 1.4-.7v-4h-3.7v-3h7.9v8.1zm-68.5 59.7c-6.4 0-11.5-5.2-11.5-11.6 0-6.4 5.1-11.6 11.5-11.6s11.5 5.2 11.5 11.6c0 6.4-5.1 11.6-11.5 11.6zm37.8 36.6H26.3q-.2 0-.4-.1-.3 0-.5-.2-.2-.1-.4-.3l-.2-.4q-.1-.2-.2-.5v-.4q0-.3.1-.5t.3-.4l31.8-38.8q.3-.3.6-.5.2-.1.6-.2.3 0 .6.1.4.1.6.3L73 115.9l1.5-1.1s.2-.2.3-.2c.1-.1-2.3 3.4-2.2 3.4q.2-.1.4-.1h.6q-.3.4-.5.7c-.6 0-1.2-.2-1.3-.7v1.5l.3.2q.2.2.5.2v.1h.1q0 .2.1.3c0 .1.1-.1.2-.3h.2q.3 0 .6-.1.2-.1.5-.3l1-.8V146q0 .3-.2.6-.1.4-.4.6-.2.3-.5.4-.3.1-.7.1zm-1-28q.1.1.1.2h.4c.3-.3.6-.7 1-1.2q-.5 0-.9-.1c-.3.6-.6 1-.6 1.1zm1.8-1.5v.1l.2.2.1-.7c.4-.5.7-.8.7-.8v1.6c-.3 0-.8.1-1.3.1q.1-.2.3-.5zm-.7-.3l1.2-2-.2 1.9q-.1.2-.3.4-.2-.1-.3-.1-.2-.1-.3-.2h-.1zM43.7 99.5c0-4.5-3.6-8.1-8-8.1s-8 3.6-8 8.1 3.6 8.1 8 8.1 8-3.6 8-8.1zM30 144.2h41.8v-24.8l-13.3-9.8zm41.7-26.6v0zm3.7.9h-.2v.2z"/><use href="#prefix__img1" transform="matrix(.7 0 0 .7 60 60)"/></svg>