<svg version="1.2" xmlns="http://www.w3.org/2000/svg" viewBox="0 0 225 237" width="200" height="211">
    <defs>
        <svg id="img1" viewBox="0 0 500 500" style="" xmlns="http://www.w3.org/2000/svg">
        <path d="M 481.845 279.228 L 481.845 246.578 L 384.139 246.578 L 384.139 409.827 L 416.708 409.827 L 416.708 344.527 L 465.561 344.527 L 465.561 311.878 L 416.708 311.878 L 416.708 279.228 L 481.845 279.228 Z M 302.717 409.827 L 237.581 409.827 L 237.581 246.578 L 302.717 246.578 C 329.685 246.594 351.554 268.504 351.57 295.553 L 351.57 360.853 C 351.554 387.886 329.685 409.795 302.717 409.827 Z M 270.148 377.177 L 302.717 377.177 C 311.706 377.161 319.001 369.863 319.001 360.853 L 319.001 295.553 C 319.001 286.542 311.706 279.228 302.717 279.228 L 270.148 279.228 L 270.148 377.177 Z M 172.445 246.578 L 91.023 246.578 L 91.023 409.827 L 123.591 409.827 L 123.591 360.853 L 172.445 360.853 C 190.421 360.821 204.997 346.225 205.012 328.203 L 205.012 279.228 C 204.997 261.206 190.421 246.594 172.445 246.578 Z M 123.591 328.203 L 123.591 279.228 L 172.445 279.228 L 172.459 328.203 L 123.591 328.203 Z" fill="#fa5050" class="fill-000000" style="" transform="matrix(1, 0, 0, 1, -5.684341886080802e-14, 0)"/>
        <path d="M 351.57 213.929 L 351.57 148.629 C 351.684 144.288 349.908 140.11 346.682 137.199 L 232.693 22.926 C 229.795 19.697 225.628 17.9 221.296 18.031 L 58.454 18.031 C 40.492 18.078 25.948 32.658 25.885 50.68 L 25.885 442.476 C 25.885 460.499 40.476 475.126 58.454 475.126 L 319.001 475.126 L 319.001 442.476 L 58.454 442.476 L 58.454 50.68 L 188.727 50.68 L 188.727 148.629 C 188.79 166.636 203.334 181.212 221.296 181.279 L 319.001 181.279 L 319.001 213.929 L 351.57 213.929 Z M 221.296 148.629 L 221.296 57.211 L 312.489 148.629 L 221.296 148.629 Z" fill="#fa5050" class="fill-000000" style="" transform="matrix(1, 0, 0, 1, -5.684341886080802e-14, 0)"/>
        <path data-name="&lt;Transparent Rectangle&gt;" d="M 161.157 68.518 L 261.157 68.518 L 261.157 168.518 L 161.157 168.518 L 161.157 68.518 Z" fill="none" style="" transform="matrix(1, 0, 0, 1, -5.684341886080802e-14, 0)"/>
        </svg>
    </defs>
    <style>
        .a {
            fill: #3982f0
        }
    </style>
    <path fill-rule="evenodd" class="a"
        d="m133.6 160.5h-119.9q-0.3 0-0.6-0.2-0.3-0.1-0.6-0.4-0.2-0.2-0.4-0.5-0.1-0.3-0.1-0.7v-148q0-0.3 0.1-0.6 0.2-0.3 0.4-0.6 0.3-0.2 0.6-0.4 0.3-0.1 0.6-0.1h119.9q0.3 0 0.6 0.1 0.4 0.2 0.6 0.4 0.3 0.3 0.4 0.6 0.1 0.3 0.1 0.6v148q0 0.4-0.1 0.7-0.1 0.3-0.4 0.5-0.2 0.3-0.6 0.4-0.3 0.2-0.6 0.2zm-118.1-3.5h116.3v-144.5h-116.3z" />
    <path fill-rule="evenodd" class="a"
        d="m119.5 64.8h-91.7c-3.2 0-5.8-2.6-5.8-5.8v-32.2c0-3.2 2.6-5.8 5.8-5.8h91.7c3.2 0 5.9 2.6 5.9 5.8v32.2c0 3.2-2.7 5.8-5.9 5.8zm-91.7-40.3c-1.3 0-2.3 1-2.3 2.3v32.2c0 1.3 1 2.3 2.3 2.3h91.7c1.3 0 2.4-1 2.4-2.3v-32.2c0-1.3-1.1-2.3-2.4-2.3z" />
    <path fill-rule="evenodd" class="a"
        d="m47.3 50.6v3.8h-4.2v-3.8zm13.1-17.6h4.3v15c0 2-0.7 3.7-2 4.9q-2 1.8-5.1 1.8c-2.2 0-3.9-0.6-5.2-1.7q-2-1.6-1.9-4.7l0.1-0.1h4.1c0 1.1 0.2 1.9 0.8 2.4q0.8 0.7 2.1 0.7 1.2 0 2-0.8c0.6-0.6 0.8-1.5 0.8-2.5 0 0 0-15 0-15zm12.4 13.6v7.8h-4.2v-21.4h8.4q3.7 0 5.8 1.8c1.3 1.3 2.1 3 2.1 5q-0.1 3-2.1 5-2.1 1.8-5.8 1.8c0 0-4.2 0-4.2 0zm0-3.3h4.2c1.2 0 2.1-0.3 2.7-0.9q0.9-1 0.9-2.6 0-1.5-0.9-2.5c-0.6-0.7-1.5-1-2.7-1h-4.2zm31.4 8.1c-0.6 0.8-1.6 1.6-2.9 2.3-1.3 0.6-3 0.9-5 0.9q-3.9 0-6.4-2.4-2.4-2.4-2.4-6.3v-4.5q-0.1-3.9 2.3-6.3 2.4-2.4 6.1-2.4 3.9-0.1 6 1.9c1.3 1.2 2 2.9 2 4.9v0.1h-4c-0.1-1.1-0.4-2-1.1-2.6-0.6-0.7-1.5-1.1-2.8-1.1-1.3 0-2.3 0.6-3.1 1.6-0.8 1-1.2 2.3-1.2 3.9v4.5c0 1.6 0.4 2.9 1.2 3.9 0.9 1 1.9 1.5 3.4 1.5q1.4 0 2.3-0.3c0.7-0.2 1.1-0.4 1.4-0.7v-4h-3.7v-3h7.9c0 0 0 8.1 0 8.1zm-68.5 59.7c-6.4 0-11.5-5.2-11.5-11.6 0-6.4 5.1-11.6 11.5-11.6 6.4 0 11.5 5.2 11.5 11.6 0 6.4-5.1 11.6-11.5 11.6zm37.8 36.6h-47.2q-0.2 0-0.4-0.1-0.3 0-0.5-0.2-0.2-0.1-0.4-0.3-0.1-0.2-0.2-0.4-0.1-0.2-0.2-0.5 0-0.2 0-0.4 0-0.3 0.1-0.5 0.1-0.2 0.3-0.4l31.8-38.8q0.3-0.3 0.6-0.5 0.2-0.1 0.6-0.2 0.3 0 0.6 0.1 0.4 0.1 0.6 0.3l13.8 10.1 1.5-1.1c0 0 0.2-0.2 0.3-0.2 0.1-0.1-2.3 3.4-2.2 3.4q0.2-0.1 0.4-0.1 0.2 0 0.3 0 0.1 0 0.3 0-0.3 0.4-0.5 0.7c-0.6 0-1.2-0.2-1.3-0.7q0 0.5 0 1.5l0.3 0.2q0.2 0.2 0.5 0.2 0 0 0 0.1 0.1 0 0.1 0 0 0.2 0.1 0.3c0 0.1 0.1-0.1 0.2-0.3q0.1 0 0.2 0 0.3 0 0.6-0.1 0.2-0.1 0.5-0.3l1-0.8v27.3q0 0.3-0.2 0.6-0.1 0.4-0.4 0.6-0.2 0.3-0.5 0.4-0.3 0.1-0.7 0.1zm-1-28q0.1 0.1 0.1 0.2 0.2 0 0.4 0c0.3-0.3 0.6-0.7 1-1.2q-0.5 0-0.9-0.1c-0.3 0.6-0.6 1-0.6 1.1zm1.8-1.5q0 0.1 0 0.1 0.1 0.1 0.2 0.2l0.1-0.7c0.4-0.5 0.7-0.8 0.7-0.8v1.6c-0.3 0-0.8 0.1-1.3 0.1q0.1-0.2 0.3-0.5zm-0.7-0.3c0.6-1 1.2-2 1.2-2l-0.2 1.9q-0.1 0.2-0.3 0.4-0.2-0.1-0.3-0.1-0.2-0.1-0.3-0.2-0.1 0-0.1 0zm-29.9-18.4c0-4.5-3.6-8.1-8-8.1-4.4 0-8 3.6-8 8.1 0 4.5 3.6 8.1 8 8.1 4.4 0 8-3.6 8-8.1zm-13.7 44.7h41.8c0 0 0-18.8 0-24.8l-13.3-9.8zm41.7-26.6q0 0.1 0 0.2 0-0.4 0-0.2zm3.7 0.9q0 0-0.2 0v0.2z" />
    <use href="#img1"  transform="translate(60 60), scale(0.7)" />
</svg>