<?xml version="1.0" encoding="utf-8"?>
<svg viewBox="0 0 500 500" style="" xmlns="http://www.w3.org/2000/svg">
  <path d="M 481.845 279.228 L 481.845 246.578 L 384.139 246.578 L 384.139 409.827 L 416.708 409.827 L 416.708 344.527 L 465.561 344.527 L 465.561 311.878 L 416.708 311.878 L 416.708 279.228 L 481.845 279.228 Z M 302.717 409.827 L 237.581 409.827 L 237.581 246.578 L 302.717 246.578 C 329.685 246.594 351.554 268.504 351.57 295.553 L 351.57 360.853 C 351.554 387.886 329.685 409.795 302.717 409.827 Z M 270.148 377.177 L 302.717 377.177 C 311.706 377.161 319.001 369.863 319.001 360.853 L 319.001 295.553 C 319.001 286.542 311.706 279.228 302.717 279.228 L 270.148 279.228 L 270.148 377.177 Z M 172.445 246.578 L 91.023 246.578 L 91.023 409.827 L 123.591 409.827 L 123.591 360.853 L 172.445 360.853 C 190.421 360.821 204.997 346.225 205.012 328.203 L 205.012 279.228 C 204.997 261.206 190.421 246.594 172.445 246.578 Z M 123.591 328.203 L 123.591 279.228 L 172.445 279.228 L 172.459 328.203 L 123.591 328.203 Z" fill="#FFF" class="fill-000000" style="" transform="matrix(1, 0, 0, 1, -5.684341886080802e-14, 0)"/>
  <path d="M 351.57 213.929 L 351.57 148.629 C 351.684 144.288 349.908 140.11 346.682 137.199 L 232.693 22.926 C 229.795 19.697 225.628 17.9 221.296 18.031 L 58.454 18.031 C 40.492 18.078 25.948 32.658 25.885 50.68 L 25.885 442.476 C 25.885 460.499 40.476 475.126 58.454 475.126 L 319.001 475.126 L 319.001 442.476 L 58.454 442.476 L 58.454 50.68 L 188.727 50.68 L 188.727 148.629 C 188.79 166.636 203.334 181.212 221.296 181.279 L 319.001 181.279 L 319.001 213.929 L 351.57 213.929 Z M 221.296 148.629 L 221.296 57.211 L 312.489 148.629 L 221.296 148.629 Z" fill="#fff" class="fill-000000" style="" transform="matrix(1, 0, 0, 1, -5.684341886080802e-14, 0)"/>
  <path data-name="&lt;Transparent Rectangle&gt;" d="M 161.157 68.518 L 261.157 68.518 L 261.157 168.518 L 161.157 168.518 L 161.157 68.518 Z" fill="none" style="" transform="matrix(1, 0, 0, 1, -5.684341886080802e-14, 0)"/>
</svg>