<svg version="1.2" xmlns="http://www.w3.org/2000/svg" viewBox="0 0 225 237" width="200" height="211"><defs><svg id="prefix__a" viewBox="0 0 500 500" xml:space="preserve" xmlns="http://www.w3.org/2000/svg"><path d="M428.1 454.3H83.9a5 5 0 01-5-5V24.2a5 5 0 015-5h344.3a5 5 0 015 5v425.1a5 5 0 01-5 5zm-339.3-10H423V29.2H88.9v415z" fill="#3982f0" class="prefix__fill-000000"/><path d="M387.8 179.5H124.2c-9.2 0-16.7-7.6-16.7-16.8V70.4c0-9.3 7.5-16.8 16.7-16.8h263.6c9.2 0 16.7 7.5 16.7 16.8v92.3c0 9.3-7.5 16.8-16.7 16.8zM124.2 63.6c-3.7 0-6.7 3-6.7 6.8v92.3c0 3.7 3 6.8 6.7 6.8h263.6c3.7 0 6.7-3 6.7-6.8V70.4c0-3.7-3-6.8-6.7-6.8H124.2z" fill="#3982f0" class="prefix__fill-000000"/><path d="M180.2 149.5h-12.1v-10.8h12.1v10.8zm37.9-61.4h12.3v43c0 5.9-2 10.6-5.8 14.2-3.8 3.4-8.6 5.2-14.5 5.2-6.4 0-11.4-1.6-15.1-4.7-3.8-3.1-5.6-7.7-5.4-13.7l.1-.3h11.8c0 3.2.7 5.6 2.3 6.9 1.5 1.5 3.5 2.2 6.1 2.2 2.2 0 4.1-.9 5.7-2.5 1.6-1.8 2.3-4.3 2.3-7.2V88.1zm35.7 39.1v22.3h-12.3V88.1h24.3c7 0 12.6 1.8 16.5 5.3 3.9 3.7 6 8.4 6 14.3 0 5.8-2 10.5-6 14.2-3.9 3.5-9.5 5.3-16.5 5.3h-12zm0-9.4h12c3.4 0 6-1 7.8-2.8 1.8-1.9 2.6-4.3 2.6-7.2 0-3-.9-5.3-2.6-7.2-1.8-1.9-4.4-3-7.8-3h-12v20.2zm90.2 23.3c-1.8 2.4-4.7 4.6-8.5 6.5-3.8 1.8-8.6 2.8-14.5 2.8-7.5 0-13.6-2.4-18.3-7.1-4.7-4.6-7-10.6-7-18.2v-12.8c0-7.4 2.2-13.4 6.7-18.2 4.5-4.6 10.4-6.9 17.5-6.9 7.5 0 13.2 1.8 17.1 5.5 3.8 3.7 5.8 8.4 6 14.3l-.1.3h-11.4c-.3-3.2-1.3-5.9-3.2-7.7-1.8-1.9-4.4-3-8-3-3.7 0-6.7 1.5-8.9 4.4-2.3 2.8-3.5 6.6-3.5 11.2V125c0 4.7 1.2 8.4 3.5 11.4 2.5 3 5.6 4.3 9.7 4.3 2.8 0 5.1-.3 6.9-.9 1.8-.6 3.1-1.2 3.9-2.1v-11.2h-10.8v-8.6H344v23.2zM147 312.5c-18.2 0-33.1-15-33.1-33.4 0-18.3 14.8-33.2 33.1-33.2s33.1 14.9 33.1 33.2c0 18.4-14.8 33.4-33.1 33.4zm0-56.6c-12.7 0-23 10.4-23 23.2 0 12.9 10.3 23.3 23 23.3s23-10.5 23-23.3-10.3-23.2-23-23.2zm249.4 161.9H120.1a5 5 0 01-4.5-2.9 5 5 0 01.7-5.3l91.5-111.5a5 5 0 016.9-.9l39.6 29.2 80.4-70.6a5.1 5.1 0 013.7-1.2 5 5 0 013.5 1.8l58.5 69.8a5 5 0 011.2 3.2v83.3a5 5 0 01-5 5zm-265.7-10h260.7v-76.4l-54-64.5-79.6 69.8a5 5 0 01-6.3.3l-39-28.8-81.8 99.6z" fill="#3982f0" class="prefix__fill-000000"/></svg></defs><path d="M90.81 122.61H71.28V73.65h19.53c8.1 0 14.67 6.57 14.67 14.7v19.59c0 8.1-6.57 14.67-14.67 14.67zm-9.78-9.78h9.78c2.7 0 4.89-2.19 4.89-4.89V88.35c0-2.73-2.19-4.92-4.89-4.92h-9.78v29.4zM51.72 73.65H27.3v48.96h9.78v-14.67h14.64c5.4-.03 9.78-4.41 9.78-9.81v-14.7c0-5.4-4.38-9.78-9.78-9.78zM37.08 98.13v-14.7h14.64l.03 14.7H37.08z" fill="#fa5050" class="prefix__fill-000000"/><path d="M123.06 74.865V52.01a5.246 5.246 0 00-1.715-3.99l-39.9-40.005a5.246 5.246 0 00-3.99-1.715h-56.98c-6.3.035-11.41 5.145-11.41 11.445v137.13c0 6.3 5.11 11.41 11.41 11.41h91.175v-11.41H20.475V17.745h45.57V52.01c.035 6.3 5.11 11.41 11.41 11.445h34.195v11.41h11.41zM77.455 52.01V20.02l31.92 31.99h-31.92z" fill="#fa5050" class="prefix__fill-000000"/><use href="#prefix__a" transform="matrix(.8 0 0 .8 48 48)"/></svg>