<svg version="1.2" xmlns="http://www.w3.org/2000/svg" viewBox="0 0 500 450" width="600" height="600">
  <defs>
    <svg id="prefix__img1" viewBox="0 0 500 500" style="" xmlns="http://www.w3.org/2000/svg">
    <path
        d="M108.978 161.934c-.684-2.56-2.306-4.902-4.72-6.38l-.61-.36a10.827 10.827 0 0 0-14.273 3.821l-.361.613a10.83 10.83 0 0 0-.902 7.893c.723 2.596 2.379 4.974 4.868 6.451l.179.107a10.822 10.822 0 0 0 8.219 1.082 10.71 10.71 0 0 0 6.451-4.865l.07-.18c1.515-2.561 1.802-5.516 1.079-8.182m-.396-14.093c4.58 2.739 7.679 7.028 8.939 11.821a19.626 19.626 0 0 1-1.73 14.524l-.396.685a19.722 19.722 0 0 1-11.746 8.83 19.624 19.624 0 0 1-14.526-1.766l-.723-.433a19.477 19.477 0 0 1-8.83-11.713c-1.295-4.794-.72-10.128 1.948-14.813l.144-.252a19.639 19.639 0 0 1 11.82-8.974 19.605 19.605 0 0 1 14.887 1.981l.213.11zm315.29 195.883c-.724-2.667-2.453-5.082-5.047-6.56-2.559-1.478-5.514-1.766-8.181-1.081-2.667.721-5.082 2.487-6.56 5.046s-1.804 5.515-1.081 8.182c.72 2.594 2.341 4.938 4.794 6.451l.249.107a10.661 10.661 0 0 0 8.076 1.117l.108-.035c2.629-.685 4.973-2.379 6.485-4.865l.074-.182a10.751 10.751 0 0 0 1.083-8.18zm-.614-14.201a19.578 19.578 0 0 1 9.156 11.93c1.26 4.722.793 9.911-1.77 14.524l-.396.685a19.551 19.551 0 0 1-11.711 8.831l-.218.071a19.457 19.457 0 0 1-14.308-1.838l-.755-.433c-4.506-2.703-7.534-6.991-8.795-11.677a19.661 19.661 0 0 1 1.983-14.922 19.56 19.56 0 0 1 11.929-9.154 19.612 19.612 0 0 1 14.885 1.983zM284.032 69.271l-.183-.072-2.054-.685-.069-.036-3.822-1.297-.035-.037c-27.823-9.37-37.843-11.533-47.178-10.631h-.035l-.396.035-.253.036-.144.036-.396.035-.074.037-.361.035-.288.037c-12.722 1.874-32.474 7.389-43.788 10.019l-.685.146-.688.18-.684.144-.72.181-.684.145-.685.18-.684.145-.688.18-.685.145-.719.145-.684.18-.685.144-.685.181-.688.145-.685.18 56.226 1.802.611.036h.58l1.116.037h.54l.541.035h.541l.327.037H235.882l.793.035.179.036h.575l.432.036c12.185.684 19.751 3.172 44.152 18.993l.288.181.649.469c3.387 2.197 7.1 4.613 11.136 7.353l43.5-10.165-3.892-1.368c-20.615-7.316-36.724-13.012-49.52-17.408l-.073-.036h-.069zm-122.11-6.199c18.021-4.217 36.548-9.082 54.604-12.758l.214-.072c4.145-.974 7.605-1.803 10.957-2.307h.109l.47-.072.144-.036.323-.036.361-.036.109-.036.467-.035.108-.037h.323l.396-.035.074-.036.467-.037c9.335-.756 19.429 1.262 43.503 9.19l.54.182.611.215 1.189.396h.074l1.115.396.759.254.467.143 2.522.865 1.011.324.253.109 1.334.432.467.18 39.394-21.084-4.145-.287c-49.522-3.93-74.461-5.911-89.239-5.515-14.234.36-19.137 2.991-28.975 8.325l-40.006 21.408zm165.793 306.205a4.191 4.191 0 0 1 1.548.54l83.617 48.295a32.299 32.299 0 0 0 3.169 1.586c1.046.433 2.127.829 3.208 1.117 3.246.648 6.56.541 9.696-.324 5.191-1.37 9.876-4.722 12.793-9.623 13.371-24.039 27.683-48.367 41.629-72.118a21.15 21.15 0 0 0 1.874-15.786c-1.368-5.153-4.649-9.803-9.514-12.722l-.649-.361C372.658 250.738 197.246 134.434 97.808 92.302c-1.369-.613-3.496-1.046-4.615-1.802a21.994 21.994 0 0 0-10.164.252c-5.261 1.405-10.02 4.83-12.936 9.875l-41.268 71.506c-2.92 5.082-3.496 10.885-2.092 16.146 1.408 5.189 4.724 9.875 9.658 12.795l291.324 168.203zm-51.973 62.604h.215l.688.035.432.036h.253l.179.036h.505l.397.036h.287l.18.036h.901l.396.035h.758l.323.036h.471l.502.036h1.045c34.422 1.118 68.84 2.234 103.223 3.353 5.046.144 10.198-1.046 14.992-3.279 3.028-1.406 5.875-3.208 8.507-5.335-.54-.252-1.046-.54-1.586-.829l-83.257-48.078-149.101-4.83 3.496 2.379c20.112 13.841 73.092 54.639 96.194 56.333zm62.856 11.099.649-.181-56.19-1.801h-.611l-.287-.037H281.292l-.54-.036h-.541l-.54-.035H279.13l-.322-.036h-.832l-.432-.036h-.323l-.183-.036h-.61l-.396-.036-.361-.036h-.145l-.466-.036h-.109l-.396-.035h-.361l-.109-.036-.466-.036h-.145l-.326-.036-.396-.037h-.105l-.471-.035-.144-.036-.288-.036c-7.928-.901-14.883-3.352-28.075-11.244l-.723-.433-.754-.469-.793-.469-.144-.107-.649-.396-.614-.361-.179-.107-.829-.505-.288-.217-.541-.324-.793-.505-.039-.036-.863-.54-.47-.289-.397-.251-.898-.577-.144-.071-.793-.506-.649-.433-.288-.18-.937-.612-.288-.181-.688-.433-.863-.576-.109-.072-.972-.648-.505-.324-.541-.361-1.045-.684-.035-.036-1.011-.649-.685-.469-.396-.252-1.081-.721-.252-.18-.863-.578-.937-.612-.179-.144-1.19-.757-.435-.325-43.5 10.164 3.892 1.369c19.569 6.92 82.75 31.897 102.393 30.239h.217l.397-.036.396-.036.249-.036.183-.036.396-.036h.07l.361-.071.253-.037h.144l.396-.072c2.881-.469 5.875-1.188 9.444-2.018 11.026-2.631 22.092-5.189 33.119-7.749l.723-.18.685-.146.685-.18.684-.144.686-.181.684-.144.723-.145.685-.181.685-.144.685-.18.685-.146.684-.18.685-.144 1.4-.323zm13.371 5.948c-17.947 4.181-36.797 9.299-54.748 12.795l-.07.036c-3.892.9-7.174 1.693-10.308 2.197l-.287.036-.436.073-.502.071-.183.036-.287.036-.397.036-.069.036-.471.035-.144.036h-.288l-.432.072h-.039l-.467.036c-8.903.721-18.487-1.081-40.148-8.108l-.362-.108-.723-.253-1.042-.324-.074-.036-1.154-.359-.576-.181-.576-.216-1.189-.361-.074-.035-1.116-.397-.793-.252-.432-.145-5.117-1.729-.505-.181-39.359 21.085 4.218.323c49.484 3.894 74.426 5.875 89.166 5.479 14.234-.324 19.137-2.991 28.979-8.325 13.298-7.172 26.669-14.273 40.005-21.408zM103.683 85.237l75.398 43.538 9.009 5.189 149.75 4.866-3.461-2.38c-18.056-12.396-32.146-22.092-43.392-29.661l-.073-.036-.035-.035-.035-.037-.073-.035-.649-.433-1.151-.757v-.037l-1.154-.757-.576-.396-.54-.36-2.85-1.874-.432-.289-1.008-.684-.144-.073-.902-.612-.684-.433-.327-.216-2.667-1.73-.253-.18-.937-.613-.214-.145-.685-.432-.723-.469-.18-.107-.866-.577-.288-.181-2.271-1.441-.323-.18-1.225-.758-.073-.072c-15.281-9.442-22.022-11.857-30.238-12.614h-.144l-.288-.036-.361-.035h-.07l-.435-.037h-.179l-.218-.035H237.249l-.432-.036h-.252l-.183-.036h-.502l-.396-.036h-.471l-.902-.036-.396-.035h-.754l-2.344-.072c-34.418-1.118-68.839-2.234-103.222-3.353-5.046-.144-10.198 1.046-14.993 3.279a40.882 40.882 0 0 0-8.719 5.479z"
        fill-rule="evenodd" clip-rule="evenodd" fill="#ffffff" class="fill-000000"></path>
    </svg>
  </defs>
  
  <path d="M 481.845 279.228 L 481.845 246.578 L 384.139 246.578 L 384.139 409.827 L 416.708 409.827 L 416.708 344.527 L 465.561 344.527 L 465.561 311.878 L 416.708 311.878 L 416.708 279.228 L 481.845 279.228 Z M 302.717 409.827 L 237.581 409.827 L 237.581 246.578 L 302.717 246.578 C 329.685 246.594 351.554 268.504 351.57 295.553 L 351.57 360.853 C 351.554 387.886 329.685 409.795 302.717 409.827 Z M 270.148 377.177 L 302.717 377.177 C 311.706 377.161 319.001 369.863 319.001 360.853 L 319.001 295.553 C 319.001 286.542 311.706 279.228 302.717 279.228 L 270.148 279.228 L 270.148 377.177 Z M 172.445 246.578 L 91.023 246.578 L 91.023 409.827 L 123.591 409.827 L 123.591 360.853 L 172.445 360.853 C 190.421 360.821 204.997 346.225 205.012 328.203 L 205.012 279.228 C 204.997 261.206 190.421 246.594 172.445 246.578 Z M 123.591 328.203 L 123.591 279.228 L 172.445 279.228 L 172.459 328.203 L 123.591 328.203 Z" fill="#FFF" class="fill-000000" style="" transform="matrix(1, 0, 0, 1, -5.684341886080802e-14, 0)"/>
  <path d="M 351.57 213.929 L 351.57 148.629 C 351.684 144.288 349.908 140.11 346.682 137.199 L 232.693 22.926 C 229.795 19.697 225.628 17.9 221.296 18.031 L 58.454 18.031 C 40.492 18.078 25.948 32.658 25.885 50.68 L 25.885 442.476 C 25.885 460.499 40.476 475.126 58.454 475.126 L 319.001 475.126 L 319.001 442.476 L 58.454 442.476 L 58.454 50.68 L 188.727 50.68 L 188.727 148.629 C 188.79 166.636 203.334 181.212 221.296 181.279 L 319.001 181.279 L 319.001 213.929 L 351.57 213.929 Z M 221.296 148.629 L 221.296 57.211 L 312.489 148.629 L 221.296 148.629 Z" fill="#fff" class="fill-000000" style="" transform="matrix(1, 0, 0, 1, -5.684341886080802e-14, 0)"/>
  <path data-name="&lt;Transparent Rectangle&gt;" d="M 161.157 68.518 L 261.157 68.518 L 261.157 168.518 L 161.157 168.518 L 161.157 68.518 Z" fill="none" style="" transform="matrix(1, 0, 0, 1, -5.684341886080802e-14, 0)"/>
    
  <use href="#prefix__img1" transform="scale(0.3) translate(1350 1620) rotate(150)" />
</svg>