<svg version="1.2" xmlns="http://www.w3.org/2000/svg" viewBox="0 0 225 237" width="200" height="211">
  <defs>
    <svg id="img1" viewBox="0 0 500 500" xml:space="preserve" xmlns="http://www.w3.org/2000/svg"
      enable-background="new 0 0 512 512">
      <path
        d="M 428.1 454.3 H 83.9 a 5 5 0 0 1 -5 -5 V 24.2 a 5 5 0 0 1 5 -5 h 344.3 a 5 5 0 0 1 5 5 v 425.1 a 5 5 0 0 1 -5 5 z m -339.3 -10 h 334.2 V 29.2 H 88.9 v 415 z"
        fill="#3982f0" class="fill-000000"></path>
      <path
        d="M 387.8 179.5 H 124.2 c -9.2 0 -16.7 -7.6 -16.7 -16.8 V 70.4 c 0 -9.3 7.5 -16.8 16.7 -16.8 h 263.6 c 9.2 0 16.7 7.5 16.7 16.8 v 92.3 c 0 9.3 -7.5 16.8 -16.7 16.8 z M 124.2 63.6 c -3.7 0 -6.7 3 -6.7 6.8 v 92.3 c 0 3.7 3 6.8 6.7 6.8 h 263.6 c 3.7 0 6.7 -3 6.7 -6.8 V 70.4 c 0 -3.7 -3 -6.8 -6.7 -6.8 H 124.2 z"
        fill="#3982f0" class="fill-000000"></path>
      <path
        d="M 180.2 149.5 h -12.1 v -10.8 h 12.1 v 10.8 z m 37.9 -61.4 h 12.3 v 43 c 0 5.9 -2 10.6 -5.8 14.2 c -3.8 3.4 -8.6 5.2 -14.5 5.2 c -6.4 0 -11.4 -1.6 -15.1 -4.7 c -3.8 -3.1 -5.6 -7.7 -5.4 -13.7 l 0.1 -0.3 h 11.8 c 0 3.2 0.7 5.6 2.3 6.9 c 1.5 1.5 3.5 2.2 6.1 2.2 c 2.2 0 4.1 -0.9 5.7 -2.5 c 1.6 -1.8 2.3 -4.3 2.3 -7.2 V 88.1 z m 35.7 39.1 v 22.3 h -12.3 V 88.1 h 24.3 c 7 0 12.6 1.8 16.5 5.3 c 3.9 3.7 6 8.4 6 14.3 c 0 5.8 -2 10.5 -6 14.2 c -3.9 3.5 -9.5 5.3 -16.5 5.3 h -12 z m 0 -9.4 h 12 c 3.4 0 6 -1 7.8 -2.8 c 1.8 -1.9 2.6 -4.3 2.6 -7.2 c 0 -3 -0.9 -5.3 -2.6 -7.2 c -1.8 -1.9 -4.4 -3 -7.8 -3 h -12 v 20.2 z m 90.2 23.3 c -1.8 2.4 -4.7 4.6 -8.5 6.5 c -3.8 1.8 -8.6 2.8 -14.5 2.8 c -7.5 0 -13.6 -2.4 -18.3 -7.1 c -4.7 -4.6 -7 -10.6 -7 -18.2 v -12.8 c 0 -7.4 2.2 -13.4 6.7 -18.2 c 4.5 -4.6 10.4 -6.9 17.5 -6.9 c 7.5 0 13.2 1.8 17.1 5.5 c 3.8 3.7 5.8 8.4 6 14.3 l -0.1 0.3 h -11.4 c -0.3 -3.2 -1.3 -5.9 -3.2 -7.7 c -1.8 -1.9 -4.4 -3 -8 -3 c -3.7 0 -6.7 1.5 -8.9 4.4 c -2.3 2.8 -3.5 6.6 -3.5 11.2 v 12.8 c 0 4.7 1.2 8.4 3.5 11.4 c 2.5 3 5.6 4.3 9.7 4.3 c 2.8 0 5.1 -0.3 6.9 -0.9 c 1.8 -0.6 3.1 -1.2 3.9 -2.1 V 126.5 h -10.8 v -8.6 h 22.9 v 23.2 z M 147 312.5 c -18.2 0 -33.1 -15 -33.1 -33.4 c 0 -18.3 14.8 -33.2 33.1 -33.2 s 33.1 14.9 33.1 33.2 c 0 18.4 -14.8 33.4 -33.1 33.4 z m 0 -56.6 c -12.7 0 -23 10.4 -23 23.2 c 0 12.9 10.3 23.3 23 23.3 s 23 -10.5 23 -23.3 c 0 -12.8 -10.3 -23.2 -23 -23.2 z M 396.4 417.8 H 120.1 a 5 5 0 0 1 -4.5 -2.9 a 5 5 0 0 1 0.7 -5.3 l 91.5 -111.5 a 5 5 0 0 1 6.9 -0.9 l 39.6 29.2 l 80.4 -70.6 a 5.1 5.1 0 0 1 3.7 -1.2 a 5 5 0 0 1 3.5 1.8 l 58.5 69.8 a 5 5 0 0 1 1.2 3.2 v 83.3 a 5 5 0 0 1 -5 5 z m -265.7 -10 h 260.7 V 331.4 l -54 -64.5 l -79.6 69.8 a 5 5 0 0 1 -6.3 0.3 L 212.5 308.2 l -81.8 99.6 z"
        fill="#3982f0" class="fill-000000"></path>
    </svg>
  </defs>
  <path
    d="M 302.7 408.7 L 237.6 408.7 L 237.6 245.5 L 302.7 245.5 C 329.7 245.5 351.6 267.4 351.6 294.5 L 351.6 359.8 C 351.6 386.8 329.7 408.7 302.7 408.7 Z M 270.1 376.1 L 302.7 376.1 C 311.7 376.1 319 368.8 319 359.8 L 319 294.5 C 319 285.4 311.7 278.1 302.7 278.1 L 270.1 278.1 L 270.1 376.1 Z M 172.4 245.5 L 91 245.5 L 91 408.7 L 123.6 408.7 L 123.6 359.8 L 172.4 359.8 C 190.4 359.7 205 345.1 205 327.1 L 205 278.1 C 205 260.1 190.4 245.5 172.4 245.5 Z M 123.6 327.1 L 123.6 278.1 L 172.4 278.1 L 172.5 327.1 L 123.6 327.1 Z"
    fill="#fa5050" class="fill-000000" style="" transform="scale(0.3)" />
  <path
    d="M 351.6 213.9 L 351.6 148.6 C 351.7 144.3 349.9 140.1 346.7 137.2 L 232.7 22.9 C 229.8 19.7 225.6 17.9 221.3 18 L 58.5 18 C 40.5 18.1 25.9 32.7 25.9 50.7 L 25.9 442.5 C 25.9 460.5 40.5 475.1 58.5 475.1 L 319 475.1 L 319 442.5 L 58.5 442.5 L 58.5 50.7 L 188.7 50.7 L 188.7 148.6 C 188.8 166.6 203.3 181.2 221.3 181.3 L 319 181.3 L 319 213.9 L 351.6 213.9 Z M 221.3 148.6 L 221.3 57.2 L 312.5 148.6 L 221.3 148.6 Z"
    fill="#fa5050" class="fill-000000" style="" transform="scale(0.35)" />
  <use href="#img1" transform="scale(0.8) translate(60 60)" />
</svg>